General
Complete name                    : Leningrad.2009.SWESUB.DVDRip.XviD.AC3.(5.1)-Zen_Bud
Format                           : AVI
Format/Info                      : Audio Video Interleave
File size                        : 1.37 GiB
Duration                         : 1h 45mn
Overall bit rate                 : 1 853 Kbps

Video

Format                           : MPEG-4 Visual
Codec ID/Hint                    : XviD
Duration                         : 1h 45mn
Bit rate                         : 1 394 Kbps
Width                            : 698 pixels
Height                           : 434 pixels
Display aspect ratio             : 2.25:1
Stream size                      : 1.03 GiB (75%)
Writing library                  : XviD 1.1.2 (UTC 2006-11-01)

Audio

Format                           : AC-3
Duration                         : 1h 45mn
Bit rate                         : 448 Kbps
Channel(s)                       : 6 channels
Channel positions                : Front: L C R, Side: L R, LFE
Sampling rate                    : 48.0 KHz
Stream size                      : 339 MiB (24%)